<svg id="Layer_1" enable-background="new 0 0 512 512" height="512" viewBox="0 0 512 512" width="512" xmlns="http://www.w3.org/2000/svg" xmlns:xlink="http://www.w3.org/1999/xlink"><linearGradient id="SVGID_1_" gradientTransform="matrix(1 0 0 -1 0 512)" gradientUnits="userSpaceOnUse" x1="1" x2="511" y1="256" y2="256"><stop offset="0" stop-color="#cadfef"/><stop offset="1" stop-color="#eff4f9"/></linearGradient><g id="_x32_4_Delivery"><g><path d="m96.867 255.359c-32.377 23.29-74.44 38.993-90.321 75.578-18.531 42.687 11.85 94.689 54.589 113.103 42.738 18.414 92.33 10.67 136.296-4.581 21.529-7.469 42.705-16.71 65.271-19.881 42.773-6.01 85.153 10.269 127.944 16.149s94.344-3.587 113.547-42.276c15.776-31.785 2.358-71.709-22.036-97.479-24.395-25.77-57.675-40.81-89.532-56.439-31.857-15.63-64.34-33.485-84.649-62.583-17.558-25.157-76.242-175.727-124.567-97.333-15.905 25.8-10.711 64.461-22.443 93.193-13.337 32.652-35.393 61.897-64.099 82.549z" fill="url(#SVGID_1_)"/><g><path d="m343.637 144.028v211.77h-280.006v-211.77c0-8.639 7.003-15.642 15.642-15.642h248.722c8.639 0 15.642 7.004 15.642 15.642z" fill="#ffd764"/><path d="m343.645 144.022v211.757h-30.9v-211.757c0-8.615-6.986-15.642-15.642-15.642h30.9c8.613 0 15.642 7.029 15.642 15.642z" opacity=".18"/><path d="m448.413 268.118v87.667h-104.78v-155.406h49.69c7.577 0 14.688 3.66 19.093 9.825l31.627 44.275c2.842 3.981 4.37 8.748 4.37 13.639z" fill="#ffd764"/><path d="m448.332 267.078c-.202-4.521-1.651-8.904-4.29-12.599l-31.627-44.275c-4.405-6.166-11.516-9.825-19.093-9.825h-49.69v66.699z" fill="#f4f4f4"/><path d="m448.429 268.136v87.642h-29.484v-87.642c0-4.928-1.543-9.686-4.372-13.672l-31.628-44.271c-4.415-6.171-11.528-9.815-19.115-9.815h29.486c7.585 0 14.7 3.643 19.115 9.815l31.628 44.271c2.828 3.987 4.37 8.744 4.37 13.672z" opacity=".18"/><path d="m423.842 355.784c0 15.356-12.446 27.836-27.836 27.836-15.356 0-27.802-12.48-27.802-27.836s12.446-27.836 27.802-27.836c15.39 0 27.836 12.481 27.836 27.836z" fill="#7bffcd"/><path d="m184.752 355.784c0 15.356-12.446 27.836-27.836 27.836-15.356 0-27.802-12.48-27.802-27.836s12.446-27.836 27.802-27.836c15.389 0 27.836 12.481 27.836 27.836z" fill="#7bffcd"/><g fill="#2b3c65"><path d="m457.428 351.495h-4.712v-83.357c0-6.423-2.046-11.453-5.168-16.163l-31.632-44.271c-5.194-7.268-13.643-11.608-22.6-11.608h-32.528c-2.369 0-4.286 1.919-4.286 4.286s1.917 4.286 4.286 4.286h32.528c6.194 0 12.037 2.999 15.628 8.022l31.637 44.283c1.381 2.093 2.074 3.442 2.731 5.812h-82.523c-2.369 0-4.286 1.919-4.286 4.286s1.917 4.286 4.286 4.286h83.357v80.144h-16.337c-2.108-15.687-15.547-27.832-31.801-27.832-16.238 0-29.662 12.146-31.768 27.832-3.087 0-16.9 0-16.308 0v-207.474c0-10.989-8.94-19.928-19.926-19.928h-248.745c-10.99 0-19.93 8.94-19.93 19.928v87.729c0 2.367 1.917 4.286 4.286 4.286s4.286-1.919 4.286-4.286v-87.729c0-6.262 5.094-11.357 11.359-11.357h248.743c6.262 0 11.354 5.096 11.354 11.357v207.471h-150.644c-2.108-15.687-15.547-27.832-31.801-27.832-16.234 0-29.659 12.146-31.764 27.832h-57.248v-50.658c0-2.367-1.917-4.286-4.286-4.286s-4.286 1.919-4.286 4.286v50.658h-4.759c-2.369 0-4.286 1.919-4.286 4.286s1.917 4.286 4.286 4.286h70.577c2.102 15.69 15.527 27.841 31.765 27.841 16.257 0 29.698-12.151 31.802-27.841 6.029 0 181.537 0 175.52 0 2.102 15.69 15.527 27.841 31.769 27.841 16.257 0 29.698-12.151 31.802-27.841.869 0 31.569 0 29.621 0 2.369 0 4.286-1.919 4.286-4.286-.001-2.366-1.916-4.289-4.285-4.289zm-300.514 27.839c-12.966 0-23.513-10.566-23.513-23.55s10.546-23.55 23.513-23.55c12.958 0 23.499 10.519 23.546 23.464 0 .029-.016.053-.016.082s.016.054.017.083c-.044 12.948-10.587 23.471-23.547 23.471zm239.091 0c-12.966 0-23.517-10.566-23.517-23.55s10.551-23.55 23.517-23.55c12.969 0 23.518 10.537 23.548 23.497 0 .017-.01.032-.01.049 0 .018.01.033.01.05-.025 12.964-10.576 23.504-23.548 23.504z"/><path d="m63.616 267.621c2.369 0 4.286-1.919 4.286-4.286v-14.355c0-2.367-1.917-4.286-4.286-4.286s-4.286 1.919-4.286 4.286v14.356c0 2.366 1.917 4.285 4.286 4.285z"/><path d="m370.835 294.705v-4.201c0-2.367-1.917-4.286-4.286-4.286s-4.286 1.919-4.286 4.286v4.201c0 2.367 1.917 4.286 4.286 4.286 2.369-.001 4.286-1.92 4.286-4.286z"/><path d="m203.634 188.357c-2.369 0-4.286 1.919-4.286 4.286v9.628l-64.44 42.862c-8.838 5.872-4.661 19.615 5.926 19.615h125.599c10.608 0 14.745-13.755 5.926-19.615l-64.44-42.862v-5.901c7.132-1.896 12.406-8.41 12.406-16.134 0-9.206-7.487-16.693-16.69-16.693s-16.69 7.487-16.69 16.693c0 2.367 1.917 4.286 4.286 4.286s4.286-1.919 4.286-4.286c0-4.478 3.641-8.121 8.12-8.121 4.478 0 8.12 3.644 8.12 8.121-.004 4.478-3.645 8.121-8.123 8.121zm62.8 67.818h-125.6c-2.122 0-2.946-2.732-1.18-3.907l63.981-42.553 63.981 42.553c1.764 1.175.939 3.907-1.182 3.907z"/></g></g></g></g></svg>