<svg id="Capa_1" enable-background="new 0 0 64 64" height="512" viewBox="0 0 64 64" width="512" xmlns="http://www.w3.org/2000/svg"><g id="_03-designer"><path d="m58.88 26.96-12.29 12.28-.84.84v-2.91h-2.92l13.13-13.13z" fill="#ff475a"/><path d="m55.96 24.04-13.13 13.13v-2.92h-2.91l2.17-2.16 1.25-1.25v-.01l9.71-9.7z" fill="#ff9696"/><path d="m32 6c.035 1.622-1.252 2.965-2.875 3-.041.001-.083.001-.125 0-2.87 0-4.82-2.74-4.99-7.34l2.99-.66c0 2.761 2.239 5 5 5z" fill="#f2f6fc"/><path d="m37 1 2.99.66c-.17 4.6-2.12 7.34-4.99 7.34-1.622.035-2.965-1.252-3-2.875-.001-.041-.001-.083 0-.125 2.761 0 5-2.239 5-5z" fill="#f2f6fc"/><path d="m63 45v8c-.003 1.103-.897 1.997-2 2h-58c-1.103-.003-1.997-.897-2-2v-8c.003-1.103.897-1.997 2-2h58c1.103.003 1.997.897 2 2z" fill="#ffe45c"/><path d="m61 52h-58c-1.103-.003-1.997-.897-2-2v3c.003 1.103.897 1.997 2 2h58c1.103-.003 1.997-.897 2-2v-3c-.003 1.103-.897 1.997-2 2z" fill="#ffa426"/><path d="m61.79 18.21c1.61 1.61 1.61 4.219.001 5.829 0 0 0 0-.001.001l-.73.73-5.83-5.83.73-.73c1.605-1.61 4.211-1.614 5.821-.009.003.003.006.006.009.009z" fill="#f2f6fc"/><path d="m61.06 24.77-2.18 2.19-2.92-2.92-2.91-2.91 2.18-2.19z" fill="#9196aa"/><path d="m44.94 13.24c-1.019 4.223-1.649 8.531-1.88 12.87-.058 1.058-.931 1.886-1.99 1.89h-18.14c-1.059-.004-1.932-.832-1.99-1.89-.231-4.339-.861-8.647-1.88-12.87-1.18 3.82-3.06 4.76-3.06 4.76l-4-4c-.168-4.489 2.135-8.711 6-11l6.01-1.34c.17 4.6 2.12 7.34 4.99 7.34 1.622.035 2.965-1.252 3-2.875.001-.041.001-.083 0-.125-.035 1.622 1.252 2.965 2.875 3 .041.001.083.001.125 0 2.87 0 4.82-2.74 4.99-7.34l6.01 1.34c3.865 2.289 6.168 6.511 6 11l-4 4s-1.88-.94-3.06-4.76z" fill="#b5efff"/><path d="m23.94 26.11c-.231-4.339-2.045-12.886-3.064-17.109-.402 1.484-.86 3.528-1.876 4.682.509 2.932 1.76 9.457 1.94 12.427.058 1.058.931 1.886 1.99 1.89h3c-1.059-.004-1.932-.832-1.99-1.89z" fill="#19cffc"/><path d="m15 14c-.168-4.489 2.135-8.711 6-11l3.051-.68c-.017-.217-.033-.434-.041-.66l-6.01 1.34c-3.865 2.289-6.168 6.511-6 11l4 4c.607-.379 1.122-.888 1.51-1.49z" fill="#19cffc"/><path d="m49 63h-34c0-2.89.07-5.55.21-8h33.58c.14 2.45.21 5.11.21 8z" fill="#b5efff"/><path d="m47.42 43h-10.42l4.38-1.46 4.37-1.46.84-.84c.3 1.14.57 2.39.83 3.76z" fill="#b5efff"/><path d="m45.75 37.17v2.91l-4.37 1.46-2.92-2.92 1.46-4.37h2.91v2.92z" fill="#f2d1a5"/><path d="m43.34 30.83v.01l-1.25 1.25-.09-.09h-21.98c1.61-3.14 2.98-4 2.98-4h18c.97.769 1.767 1.733 2.34 2.83z" fill="#1ea1e3"/><path d="m42 32 .09.09.09-.09z" fill="#368dcf"/><path d="m26 28h-3s-1.37.86-2.98 4h3c1.61-3.14 2.98-4 2.98-4z" fill="#368dcf"/><path d="m42.09 32.09-2.17 2.16-1.46 4.37-1.46 4.38h-20.42c.616-3.812 1.774-7.516 3.44-11h21.98z" fill="#b5efff"/><path d="m15.21 55c-.14 2.45-.21 5.11-.21 8h3c0-2.89.07-5.55.21-8z" fill="#19cffc"/><path d="m20.02 32c-1.666 3.484-2.824 7.188-3.44 11h3c.616-3.812 1.774-7.516 3.44-11z" fill="#19cffc"/><path d="m41.38 41.54-4.38 1.46 1.46-4.38z" fill="#7e8596"/><path d="m27 1h10c0 2.761-2.239 5-5 5s-5-2.239-5-5z" fill="#1ea1e3"/><g fill="#faa68e"><path d="m31 43h2v6h-2z"/><path d="m36 43h2v4h-2z"/><path d="m41 43h2v6h-2z"/><path d="m46 43h2v4h-2z"/><path d="m51 43h2v6h-2z"/><path d="m56 43h2v4h-2z"/><path d="m26 43h2v4h-2z"/><path d="m21 43h2v6h-2z"/><path d="m16 43h2v4h-2z"/><path d="m11 43h2v6h-2z"/><path d="m6 43h2v4h-2z"/></g><path d="m61 42h-12.758c-.18-.9-.36-1.713-.543-2.451l14.8-14.8c2.002-2.001 2.002-5.247 0-7.249-2.001-2.002-5.247-2.002-7.249 0l-11.75 11.755c-.234-.329-.456-.618-.659-.858.714-.528 1.16-1.344 1.218-2.23.199-3.265.602-6.515 1.206-9.73.533 1.007 1.323 1.855 2.29 2.458.138.069.291.104.445.105.265 0 .52-.105.707-.293l4-4c.188-.187.293-.442.293-.707.188-4.873-2.334-9.45-6.553-11.895-.073-.036-.15-.063-.23-.081l-9-2c-.072-.008-.145-.008-.217 0v-.024h-10v.025c-.072-.008-.145-.008-.217 0l-9 2c-.08.018-.157.045-.23.081-4.219 2.445-6.74 7.022-6.553 11.894 0 .265.105.52.293.707l4 4c.304.304.769.38 1.154.188.967-.603 1.757-1.451 2.29-2.458.604 3.215 1.007 6.465 1.206 9.73.059.888.507 1.705 1.224 2.233-1.455 1.735-3.809 5.612-5.409 13.6h-12.758c-1.657 0-3 1.343-3 3v8c0 1.657 1.343 3 3 3h11.16c-.1 2.172-.16 4.513-.16 7 0 .552.448 1 1 1h34c.552 0 1-.448 1-1 0-2.487-.056-4.828-.16-7h11.16c1.657 0 3-1.343 3-3v-8c0-1.657-1.343-3-3-3zm-17.837 0 2.837-.945c.067.302.133.617.2.945zm9.879-19.461 1.5 1.5-10.709 10.713v-.5c0-.552-.448-1-1-1h-.5zm-7.292 13.628h-.5l10.71-10.711 1.5 1.5-10.71 10.713v-.5c.001-.552-.446-1.001-.998-1.002-.001 0-.001 0-.002 0zm8.706-15.042.773-.774 4.42 4.42-.774.773zm-13.819 14.125h1.2v1.917c0 .552.448 1 1 1h1.913v1.2l-3.1 1.035-2.05-2.047zm-1.737 5.226.629.629-.943.314zm22.19-21.561c1.218 1.221 1.218 3.198 0 4.419l-.022.023-4.42-4.42.023-.022c1.221-1.214 3.193-1.214 4.414 0zm-19.338 12.085h-20c.44-.736.979-1.409 1.6-2h17.3c.54.501 1.014 1.068 1.412 1.688zm-3.877-28.781 1.06.235c-.311 3.457-1.758 5.546-3.935 5.546-.792.078-1.539-.382-1.826-1.125 2.357-.472 4.206-2.304 4.701-4.656zm-5.875 2.781c-1.818-.007-3.403-1.239-3.858-3h7.716c-.455 1.761-2.04 2.993-3.858 3zm-1.174 1.875c-.286.743-1.033 1.204-1.826 1.125-2.177 0-3.624-2.089-3.935-5.546l1.06-.235c.495 2.353 2.344 4.184 4.701 4.656zm-10.734 6.352c.645-2.354.95-4.787.908-7.227h-2c0 6.87-1.955 9.691-2.92 10.665l-3.075-3.074c-.035-3.93 1.993-7.591 5.345-9.644l4.75-1.057c.489 4.377 2.7 7.11 5.9 7.11 1.145.047 2.249-.43 3-1.295.751.865 1.855 1.342 3 1.295 3.2 0 5.411-2.733 5.9-7.11l4.75 1.056c3.337 2.068 5.361 5.719 5.347 9.645l-3.072 3.073c-.977-.984-2.925-3.808-2.925-10.664h-2c-.042 2.44.263 4.873.908 7.227-.992 4.209-1.61 8.497-1.847 12.815-.028.533-.466.953-1 .958h-18.126c-.534-.005-.972-.425-1-.958-.236-4.318-.852-8.606-1.843-12.815zm.563 19.773h19.1l-.543.543.009.008c-.112.106-.198.237-.25.383l-2.692 8.066h-18.473c.585-3.104 1.541-6.125 2.849-9zm27.345 29h-32c.012-2.122.067-4.127.158-6h31.681c.091 1.873.146 3.878.161 6zm14-9c0 .552-.448 1-1 1h-58c-.552 0-1-.448-1-1v-1h58v-2h-58v-5c0-.552.448-1 1-1h3v3h2v-3h3v5h2v-5h3v3h2v-3h3v5h2v-5h3v3h2v-3h3v5h2v-5h3v3h2v-3h3v5h2v-5h3v3h2v-3h3v5h2v-5h3v3h2v-3h3c.552 0 1 .448 1 1z"/></g></svg>