<?xml version="1.0" encoding="iso-8859-1"?>
<!-- Generator: Adobe Illustrator 19.0.0, SVG Export Plug-In . SVG Version: 6.00 Build 0)  -->
<svg version="1.1" id="Capa_1" xmlns="http://www.w3.org/2000/svg" xmlns:xlink="http://www.w3.org/1999/xlink" x="0px" y="0px"
	 viewBox="0 0 512.002 512.002" style="enable-background:new 0 0 512.002 512.002;" xml:space="preserve">
<path style="fill:#FDF3A9;" d="M122.502,172.5h-30l20,120h30v-100C142.502,181.454,133.548,172.5,122.502,172.5z"/>
<path style="fill:#FFFFFF;" d="M92.502,172.5h-20c-11.046,0-20,8.954-20,20v100h60v-100C112.502,181.454,103.548,172.5,92.502,172.5
	z"/>
<path style="fill:#FDA181;" d="M97.502,52.5v90c24.853,0,45-20.147,45-45S122.355,52.5,97.502,52.5z"/>
<path style="fill:#FDC0AB;" d="M112.502,97.5c0-24.853-6.716-45-15-45c-24.853,0-45,20.147-45,45s20.147,45,45,45
	C105.786,142.5,112.502,122.353,112.502,97.5z"/>
<path style="fill:#8DC051;" d="M196.002,262.5c-94.25,0-94.25-64.5-188.5-64.5v94.5l278.5,34.5l-60-64.5
	C226.002,262.5,212.57,262.5,196.002,262.5z"/>
<circle cx="37.502" cy="252.5" r="7.5"/>
<circle cx="67.501" cy="252.5" r="7.5"/>
<circle cx="316.001" cy="252.5" r="7.5"/>
<rect x="226.001" y="232.5" style="fill:#8A8A8A;" width="60" height="80"/>
<polygon style="fill:#C57C68;" points="473.44,292.5 434.502,377 504.502,322.5 504.502,292.5 "/>
<polygon style="fill:#E18F75;" points="7.502,292.5 7.502,322.5 473.44,377 473.44,292.5 "/>
<polygon style="fill:#FDF3A9;" points="473.44,322.5 443.44,381.562 473.44,464.5 504.502,464.5 504.502,322.5 "/>
<rect x="7.502" y="322.5" style="fill:#FFFFFF;" width="465.94" height="142"/>
<path style="fill:#8A8A8A;" d="M439.502,172.5h-30l-20,120l70-30v-70C459.502,181.454,450.548,172.5,439.502,172.5z"/>
<path style="fill:#A8A8A8;" d="M409.502,172.5h-20c-11.046,0-20,8.954-20,20v70l60,30v-100
	C429.502,181.454,420.548,172.5,409.502,172.5z"/>
<path style="fill:#C02015;" d="M459.502,262.5h-30l15,90h30v-50.335C474.502,286.954,468.831,273.075,459.502,262.5z"/>
<path style="fill:#E34339;" d="M429.502,262.5h-60v90h75v-50.335C444.502,286.954,438.831,273.075,429.502,262.5z"/>
<path style="fill:#8D584E;" d="M414.502,52.5v90c24.853,0,45-20.147,45-45S439.355,52.5,414.502,52.5z"/>
<path style="fill:#A96A5B;" d="M429.502,97.5c0-24.853-6.716-45-15-45c-24.853,0-45,20.147-45,45s20.147,45,45,45
	C422.786,142.5,429.502,122.353,429.502,97.5z"/>
<circle style="fill:#632B21;" cx="414.501" cy="30" r="22.5"/>
<circle cx="37.502" cy="252.5" r="7.5"/>
<circle cx="67.501" cy="252.5" r="7.5"/>
<circle cx="316.001" cy="252.5" r="7.5"/>
<path d="M97.502,150c28.949,0,52.5-23.552,52.5-52.5S126.451,45,97.502,45s-52.5,23.552-52.5,52.5S68.553,150,97.502,150z
	 M97.502,60c20.678,0,37.5,16.822,37.5,37.5S118.18,135,97.502,135s-37.5-16.822-37.5-37.5S76.824,60,97.502,60z"/>
<path d="M414.502,150c28.949,0,52.5-23.552,52.5-52.5c0-20.964-12.356-39.09-30.165-47.499c4.762-5.312,7.665-12.323,7.665-20.001
	c0-16.542-13.458-30-30-30s-30,13.458-30,30c0,7.678,2.903,14.689,7.665,20.001c-17.808,8.408-30.165,26.534-30.165,47.499
	C362.002,126.448,385.553,150,414.502,150z M399.502,30c0-8.271,6.729-15,15-15s15,6.729,15,15s-6.729,15-15,15
	S399.502,38.271,399.502,30z M414.502,60c20.678,0,37.5,16.822,37.5,37.5s-16.822,37.5-37.5,37.5s-37.5-16.822-37.5-37.5
	S393.824,60,414.502,60z"/>
<path d="M504.502,285h-24.721c-2.412-9.168-6.744-17.778-12.779-25.241V192.5c0-15.163-12.336-27.5-27.5-27.5h-50
	c-15.164,0-27.5,12.337-27.5,27.5V285h-38.5v-7.5c0-4.143-3.358-7.5-7.5-7.5s-7.5,3.357-7.5,7.5v7.5h-15v-67.5
	c0-4.143-3.358-7.5-7.5-7.5s-7.5,3.357-7.5,7.5v7.5h-15v-7.5c0-4.143-3.358-7.5-7.5-7.5s-7.5,3.357-7.5,7.5v7.5h-15v-7.5
	c0-4.143-3.358-7.5-7.5-7.5s-7.5,3.357-7.5,7.5V255h-22.5c-5.686,0-11.001-0.244-16-0.699V222.5
	c0-18.417-13.349-33.765-30.878-36.903C146.054,173.764,135.282,165,122.502,165h-50c-15.164,0-27.5,12.337-27.5,27.5v1.905
	c-10.818-2.454-23.116-3.905-37.5-3.905c-4.142,0-7.5,3.357-7.5,7.5v266.5c0,4.143,3.358,7.5,7.5,7.5h7.5v22.5
	c0,4.143,3.358,7.5,7.5,7.5s7.5-3.357,7.5-7.5V472h324.5c4.142,0,7.5-3.357,7.5-7.5s-3.358-7.5-7.5-7.5h-339.5V330h347v22.5
	c0,4.143,3.358,7.5,7.5,7.5h7.5v104.49c0,0.02,0,24.604,0,24.604l-24.872,8.29c-3.93,1.31-6.053,5.558-4.744,9.487
	c1.048,3.143,3.974,5.13,7.114,5.13c0.786,0,1.586-0.125,2.373-0.387l30-10c3.063-1.021,5.128-3.887,5.128-7.115V472h46.088v17.095
	l-24.872,8.29c-3.93,1.31-6.053,5.558-4.744,9.487c1.048,3.143,3.974,5.13,7.114,5.13c0.786,0,1.586-0.125,2.373-0.387l30-10
	c3.063-1.021,5.128-3.887,5.128-7.115V472H482v22.5c0,4.143,3.358,7.5,7.5,7.5s7.5-3.357,7.5-7.5V472h7.5c4.142,0,7.5-3.357,7.5-7.5
	v-172C512.002,288.357,508.644,285,504.502,285z M497.002,300v15h-15v-12.835c0-0.723-0.023-1.444-0.046-2.165H497.002z
	 M377.002,345v-75h45v52.5c0,4.143,3.358,7.5,7.5,7.5s7.5-3.357,7.5-7.5V270h18.961c7.134,9.183,11.039,20.478,11.039,32.165V345
	H377.002z M389.502,180h50c6.893,0,12.5,5.607,12.5,12.5V255h-15v-52.5c0-4.143-3.358-7.5-7.5-7.5s-7.5,3.357-7.5,7.5V255h-45v-62.5
	C377.002,185.607,382.609,180,389.502,180z M278.502,240v45h-45v-45H278.502z M165.002,222.5v29.638
	c-5.369-1.078-10.341-2.428-15-4.001V201.29C158.731,204.386,165.002,212.723,165.002,222.5z M60.002,192.5
	c0-6.893,5.607-12.5,12.5-12.5h50c6.893,0,12.5,5.607,12.5,12.5v49.415c-10.51-5.195-19.659-11.452-29.014-17.854
	c-13.636-9.332-27.538-18.84-45.986-25.343C60.002,198.718,60.002,192.5,60.002,192.5z M97.516,236.439
	c24.11,16.499,49.04,33.561,98.486,33.561h22.5v15h-143.5v-7.5c0-4.143-3.358-7.5-7.5-7.5s-7.5,3.357-7.5,7.5v7.5h-15v-7.5
	c0-4.143-3.358-7.5-7.5-7.5s-7.5,3.357-7.5,7.5v7.5h-15v-79.354C54.834,207.229,75.602,221.442,97.516,236.439z M15.002,315v-15h347
	v15H15.002z M392.002,457v-97h46.088v97H392.002z M453.09,457v-97h21.412c4.142,0,7.5-3.357,7.5-7.5V330h15v127H453.09z"/>
<g>
</g>
<g>
</g>
<g>
</g>
<g>
</g>
<g>
</g>
<g>
</g>
<g>
</g>
<g>
</g>
<g>
</g>
<g>
</g>
<g>
</g>
<g>
</g>
<g>
</g>
<g>
</g>
<g>
</g>
</svg>
