<svg clip-rule="evenodd" fill-rule="evenodd" height="512" image-rendering="optimizeQuality" shape-rendering="geometricPrecision" text-rendering="geometricPrecision" viewBox="0 0 173.397 173.397" width="512" xmlns="http://www.w3.org/2000/svg"><g id="Layer_x0020_1"><path d="m139.161 143.135c0-4.0942 3.3331-7.4292 7.4298-7.4292 4.0959-.0003 7.431 3.3352 7.431 7.4292 0 4.0976-3.3351 7.4327-7.4308 7.4325-4.0968 0-7.43-3.3349-7.43-7.4325zm8.2936-16.7559c.5775.0002 1.1395-.2992 1.4486-.8353.4616-.8008.1878-1.8209-.6113-2.2838l-.3861-.2229-36.7001-21.1884-5.7888-3.3421-55.6613-32.1354c-1.9788-1.1419-4.29-1.4448-6.5098-.8495-2.2194.5953-4.0707 2.012-5.2129 3.9894l-6.9109 11.9691c-1.1425 1.981-1.4438 4.2923-.8495 6.5102.5947 2.2212 2.0121 4.0729 3.9909 5.2149l51.6684 29.8319 5.4027 3.1193c.7989.4595 1.8215.1842 2.2827-.6127.4613-.8008.1877-1.8209-.6116-2.2838l-.386-.2229-56.6857-32.7281c-1.2052-.6963-2.0692-1.8243-2.433-3.182-.3635-1.3577-.1802-2.7679.5155-3.9758l6.9109-11.9688c.6959-1.2045 1.8263-2.068 3.1833-2.4334 1.3574-.3621 2.7685-.1813 3.974.515l93.1335 53.7731 5.4027 3.1194c.2632.1497.5505.2226.8338.2226zm12.4403 25.9712v-18.4272c0-3.5074-2.4054-6.4629-5.6534-7.304-.0629-.0117-.125-.0269-.1861-.0456-.5479-.127-1.1186-.1942-1.7046-.1942l-4.8962-.0002-16.4693.0002.0001 33.5147h21.3655c4.1601 0 7.544-3.3836 7.544-7.5437z" fill="#e57373" stroke="#2a283b" stroke-linecap="round" stroke-linejoin="round" stroke-width=".2"/><g id="_301768688"><path id="_301770800" d="m21.0455 126.379c-4.1595 0-7.5434 3.3841-7.5434 7.5443v18.4266c0 4.1601 3.3839 7.5443 7.5434 7.5443l131.306-.0003c4.1601 0 7.544-3.3836 7.544-7.5437v-18.4272c0-4.1601-3.384-7.5438-7.5441-7.5438l-131.305-.0002zm131.306 36.8572h-131.306c-6.0023 0-10.8855-4.8843-10.8855-10.886v-18.4272c0-6.0017 4.8832-10.8859 10.8855-10.8859l131.306-.0001c6.0019 0 10.886 4.8844 10.886 10.8863l.0001 18.4266c0 6.002-4.8844 10.8864-10.8861 10.8863z"/><path id="_301770536" d="m161.566 135.594c-.926 0-1.6711-.7483-1.6711-1.6709v-115.181c0-2.8892-2.3534-5.2391-5.2395-5.2391l-13.8232-.0001c-2.8893 0-5.24 2.35-5.24 5.2396l.0001 70.5076c0 .9228-.7482 1.6713-1.6711 1.6713-.9228-.0001-1.671-.7484-1.671-1.671l.0001-70.5083c0-4.7308 3.8498-8.5812 8.5817-8.5812l13.8236-.0003c4.7311 0 8.5813 3.8507 8.5813 8.5819l.0001 115.18c0 .9227-.7486 1.6714-1.671 1.6712z"/><path id="_301770704" d="m154.548 126.647c-.5779 0-1.1385-.2994-1.4484-.8355l-55.8787-96.7889c-.6963-1.2044-1.8268-2.0676-3.1838-2.4332-1.3572-.362-2.7683-.1775-3.974.5153l-11.97 6.9138c-2.5018 1.4412-3.3622 4.6547-1.9175 7.1544l35.2541 61.0628c.4614.8005.1872 1.8208-.6121 2.2839-.7987.4592-1.8207.188-2.2824-.6128l-35.2538-61.0632c-2.3664-4.0975-.9571-9.3541 3.1407-11.7214l11.97-6.9107c1.9788-1.142 4.2904-1.4446 6.5098-.8492 2.2193.595 4.071 2.0121 5.2133 3.9896l55.881 96.7885c.4596.7971.1845 1.8208-.6127 2.2804-.2646.153-.5501.2262-.8355.2262z"/><path id="_301770632" d="m147.455 126.379c-.2833 0-.5706-.0729-.8338-.2226l-98.5362-56.8925c-1.2055-.6963-2.6166-.8771-3.974-.515-1.357.3654-2.4874 1.2289-3.1833 2.4334l-6.9109 11.9688c-.6957 1.2079-.879 2.6181-.5155 3.9758.3638 1.3577 1.2278 2.4857 2.433 3.182l57.0717 32.951c.7993.4629 1.0729 1.483.6116 2.2838-.4612.7969-1.4838 1.0722-2.2827.6127l-57.0711-32.9512c-1.9788-1.142-3.3962-2.9937-3.9909-5.2149-.5943-2.2179-.293-4.5292.8495-6.5102l6.9109-11.9691c1.1422-1.9774 2.9935-3.3941 5.2129-3.9894 2.2198-.5953 4.531-.2924 6.5098.8495l98.5363 56.8888c.7991.4629 1.0729 1.483.6113 2.2838-.3091.5361-.8711.8355-1.4486.8353z"/><path id="_301770416" d="m29.0832 163.236c-.9227 0-1.6711-.7484-1.6711-1.6709l.0001-36.8575c0-.9223.7481-1.6707 1.671-1.6707.9229-.0001 1.6707.7485 1.6707 1.6711l.0001 36.8568c0 .9228-.7479 1.6713-1.6708 1.6712z"/><path id="_301769792" d="m129.315 163.236c-.923 0-1.6713-.7484-1.6713-1.6709l.0001-36.8575c0-.9223.7481-1.6707 1.671-1.6707.9231-.0001 1.671.7485 1.671 1.6711l.0001 36.8568c0 .9228-.7482 1.6713-1.6709 1.6712z"/><path id="_301769456" d="m146.591 139.048c-2.2539 0-4.088 1.8348-4.088 4.0872.0001 2.2557 1.8341 4.0907 4.0878 4.0907 2.2544-.0001 4.0889-1.8347 4.0889-4.0907.0002-2.2526-1.8346-4.087-4.0887-4.0872zm0 11.5197c-4.0968 0-7.43-3.3349-7.43-7.4325 0-4.0942 3.3331-7.4292 7.4298-7.4292 4.0959-.0003 7.431 3.3352 7.431 7.4292 0 4.0976-3.3351 7.4327-7.4308 7.4325z"/><path id="_301769360" d="m143.655 30.4399h8.1769v-8.1742h-8.1769zm9.848 3.3419h-11.5191c-.923 0-1.6712-.7481-1.6712-1.6706l.0001-11.5167c0-.9223.7481-1.6708 1.671-1.6708h11.5192c.9224 0 1.671.7486 1.671 1.6712l.0001 11.5162c0 .9223-.7487 1.6711-1.6711 1.6707z"/><path id="_301769960" d="m143.655 54.6283h8.1769v-8.1742h-8.1769zm9.848 3.3424h-11.5191c-.923 0-1.6712-.7485-1.6712-1.671l.0001-11.5168c0-.9258.7481-1.6707 1.671-1.6707h11.5192c.9224 0 1.671.7451 1.671 1.6711l.0001 11.5163c0 .9223-.7487 1.6711-1.6711 1.6711z"/><path id="_301769312" d="m143.655 78.8168h8.1769v-8.1778h-8.1769zm9.848 3.3423h-11.5191c-.923 0-1.6712-.7485-1.6712-1.671l.0001-11.5202c0-.9224.7481-1.6707 1.671-1.6707l11.5192-.0001c.9224 0 1.671.7486 1.671 1.6711l.0001 11.5198c0 .9223-.7487 1.6711-1.6711 1.6711z"/><path id="_301770056" d="m84.9189 40.1948 4.0883 7.0811 7.0799-4.0909-4.0877-7.0775zm3.4766 11.0324c-.1448 0-.2905-.0173-.4325-.0556-.4281-.1151-.7934-.3934-1.0148-.7799l-5.7587-9.9741c-.4617-.7974-.1881-1.8207.6111-2.2803l9.975-5.7619c.3836-.2193.8395-.2817 1.2677-.1668.4284.1148.7934.3969 1.0149.7799l5.7588 9.9741c.4617.8005.1877 1.8207-.6113 2.2836l-9.9747 5.7582c-.2564.1496-.5449.2229-.8355.2228z"/><path id="_301769840" d="m97.0128 61.1419 4.0878 7.0811 7.0805-4.0904-4.0875-7.0776zm3.4779 11.0325c-.5775 0-1.1395-.2992-1.4486-.8353l-5.7592-9.9744c-.2214-.383-.2817-.8387-.1672-1.267.1151-.4284.3952-.7937.7788-1.0164l9.9749-5.7584c.7994-.4597 1.8213-.1878 2.283.6129l5.7588 9.9739c.4613.8005.1873 1.8209-.6121 2.2839l-9.9746 5.7579c-.2628.1531-.5505.2231-.8338.2229z"/><path id="_301769864" d="m109.107 82.0895 4.0877 7.081 7.0805-4.0908-4.0879-7.0811zm3.4761 11.0323c-.1449 0-.2901-.0173-.4325-.0556-.4282-.1151-.793-.3934-1.0145-.7798l-5.759-9.9741c-.4618-.8009-.1878-1.8207.6115-2.2838l9.9749-5.7584c.3835-.2229.8393-.2817 1.2677-.1668.4283.1147.7932.3969 1.0145.7798l5.7593 9.9738c.4616.8009.1876 1.8211-.6117 2.284l-9.9746 5.7581c-.2564.1462-.5447.2228-.8356.2228z"/><path id="_301769576" d="m43.0166 85.0902 7.0805 4.0873 4.0877-7.0814-7.0803-4.0869zm7.6921 8.0419c-.291 0-.5793-.0764-.8355-.226l-9.9747-5.7585c-.7994-.4594-1.0731-1.4828-.6119-2.2834l5.7589-9.9741c.2216-.383.5866-.665 1.0149-.7798.4282-.1117.8842-.0522 1.2679.167l9.9748 5.7614c.7994.4595 1.0733 1.4833.6116 2.2805l-5.7587 9.9775c-.2218.383-.5867.6616-1.0149.7765-.1424.0381-.2876.0592-.4324.0589z"/><path id="_301769720" d="m63.9636 97.1845 7.0805 4.0873 4.088-7.0815-7.0806-4.0869zm7.6906 8.0418c-.2837 0-.5709-.0729-.8341-.226l-9.9746-5.7585c-.3841-.2228-.6641-.588-.779-1.0162-.1144-.425-.0546-.8843.1671-1.2672l5.7593-9.9745c.461-.8005 1.483-1.0718 2.2823-.6123l9.9753 5.7613c.3835.2194.6637.5851.7783 1.0134.115.4279.0546.8842-.1671 1.2671l-5.7587 9.974c-.3097.5362-.8712.8392-1.4488.8389z"/><path id="_301768784" d="m84.9107 109.275 7.0807 4.0907 4.0877-7.0815-7.0808-4.0869zm7.6905 8.0417c-.2833 0-.5706-.0694-.8338-.2225l-9.9751-5.7584c-.7989-.463-1.073-1.4829-.6117-2.2835l5.7589-9.9745c.4617-.8005 1.4837-1.0718 2.2826-.6123l9.9753 5.7579c.799.4629 1.0728 1.4868.6116 2.284l-5.7587 9.974c-.3096.5361-.8715.8356-1.4491.8353z"/><path id="_301768568" d="m54.1414 156.284c-.923 0-1.6712-.7484-1.6712-1.671l.0001-18.4271c0-.9223.7481-1.6707 1.671-1.6707s1.6711.7484 1.6711 1.671l.0001 18.4266c0 .9227-.7483 1.6712-1.6711 1.6712z"/><path id="_301769144" d="m79.199 156.284c-.9229 0-1.671-.7484-1.671-1.671l.0001-18.4271c0-.9223.748-1.6707 1.6709-1.6707.923 0 1.6711.7484 1.6711 1.671l.0001 18.4266c0 .9227-.7483 1.6712-1.6712 1.6712z"/><path id="_301769024" d="m104.257 156.284c-.9227 0-1.6711-.7484-1.6711-1.671v-18.4271c0-.9223.7482-1.6707 1.6711-1.6707s1.6714.7484 1.6714 1.671l.0002 18.4266c0 .9227-.7487 1.6712-1.6716 1.6712z"/></g><g stroke="#2a283b" stroke-linecap="round" stroke-linejoin="round" stroke-width=".2"><path d="m92.6198 123.037 36.6947.0001 11.9038-.0001-93.1335-53.7731c-1.2055-.6963-2.6166-.8771-3.974-.515-1.357.3654-2.4874 1.2289-3.1833 2.4334l-6.9109 11.9688c-.6957 1.2079-.879 2.6181-.5155 3.9758.3638 1.3577 1.2278 2.4857 2.433 3.182zm7.1892-16.5294-5.7587 9.974c-.3096.5361-.8715.8356-1.4491.8353-.2833 0-.5706-.0694-.8338-.2225l-9.9751-5.7584c-.7989-.463-1.073-1.4829-.6117-2.2835l5.7589-9.9745c.4617-.8005 1.4837-1.0718 2.2826-.6123l9.9753 5.7579c.799.4629 1.0728 1.4868.6116 2.284zm-20.9473-12.0943-5.7587 9.974c-.3097.5362-.8712.8392-1.4488.8389-.2837 0-.5709-.0729-.8341-.226l-9.9746-5.7585c-.3841-.2228-.6641-.588-.779-1.0162-.1144-.425-.0546-.8843.1671-1.2672l5.7593-9.9745c.461-.8005 1.483-1.0718 2.2823-.6123l9.9753 5.7613c.3835.2194.6637.5851.7783 1.0134.115.4279.0546.8842-.1671 1.2671zm-20.947-12.0942-5.7587 9.9775c-.2218.383-.5867.6616-1.0149.7765-.1424.0381-.2876.0592-.4324.0589-.291 0-.5793-.0764-.8355-.226l-9.9747-5.7585c-.7994-.4594-1.0731-1.4828-.6119-2.2834l5.7589-9.9741c.2216-.383.5866-.665 1.0149-.7798.4282-.1117.8842-.0522 1.2679.167l9.9748 5.7614c.7994.4595 1.0733 1.4833.6116 2.2805z" fill="#ffe0b2"/><path d="m91.9914 113.366 4.0877-7.081-7.0808-4.087-4.0876 7.077z" fill="#cfd8dc"/><path d="m71.0441 101.272 4.088-7.0817-7.0806-4.0869-4.0879 7.0811z" fill="#cfd8dc"/><path d="m50.0971 89.1775 4.0877-7.0814-7.0803-4.0869-4.0879 7.081z" fill="#cfd8dc"/><path d="m109.107 82.0895 4.088 7.081 7.08-4.0908-4.088-7.0811z" fill="#cfd8dc"/><path d="m105.988 80.0285 9.9749-5.7584c.3835-.2229.8393-.2817 1.2677-.1668.4283.1147.7932.3969 1.0145.7798l5.7593 9.9738c.4616.8009.1876 1.8211-.6117 2.284l-9.9746 5.7581c-.2564.1462-.5447.2228-.8356.2228-.1449 0-.2901-.0173-.4325-.0556-.4282-.1151-.793-.3934-1.0145-.7798l-5.759-9.9741c-.4618-.8009-.1878-1.8207.6115-2.2838zm-29.813-38.8553 35.0305 60.6755 36.7001 21.1884h3.5915l-19.018-32.9415c-.0042-.0072-.0084-.0145-.0125-.0218l-35.2463-61.0509c-.6963-1.2044-1.8268-2.0676-3.1838-2.4332-1.3572-.362-2.7683-.1775-3.974.5153l-11.97 6.9138c-2.5018 1.4412-3.3622 4.6547-1.9175 7.1544zm35.1237 25.0204-9.9746 5.7579c-.2628.1531-.5505.2231-.8338.2229-.5775 0-1.1395-.2992-1.4486-.8353l-5.7592-9.9744c-.2214-.383-.2817-.8387-.1672-1.267.1151-.4284.3952-.7937.7788-1.0164l9.9749-5.7584c.7994-.4597 1.8213-.1878 2.283.6129l5.7588 9.9739c.4613.8005.1873 1.8209-.6121 2.2839zm-12.0934-20.9474-9.9747 5.7582c-.2564.1496-.5449.2229-.8355.2228-.1448 0-.2905-.0173-.4325-.0556-.4281-.1151-.7934-.3934-1.0148-.7799l-5.7587-9.9741c-.4617-.7974-.1881-1.8207.6111-2.2803l9.975-5.7619c.3836-.2193.8395-.2817 1.2677-.1668.4284.1148.7934.3969 1.0149.7799l5.7588 9.9741c.4617.8005.1877 1.8207-.6113 2.2836z" fill="#ffe0b2"/><path d="m101.101 68.223 7.08-4.0904-4.087-7.0776-7.0812 4.0869z" fill="#cfd8dc"/><path d="m89.0072 47.2759 7.0799-4.0909-4.0877-7.0775-7.0805 4.0873z" fill="#cfd8dc"/><path d="m135.592 18.7428.0001 70.0581 20.0622 34.7487c1.6068.513 3.0527 1.3898 4.2404 2.5331v-107.34c0-2.8892-2.3534-5.2391-5.2395-5.2391l-13.8232-.0001c-2.8893 0-5.24 2.35-5.24 5.2396zm17.911 63.4163h-11.5191c-.923 0-1.6712-.7485-1.6712-1.671l.0001-11.5202c0-.9224.7481-1.6707 1.671-1.6707l11.5192-.0001c.9224 0 1.671.7486 1.671 1.6711l.0001 11.5198c0 .9223-.7487 1.6711-1.6711 1.6711zm0-24.1884h-11.5191c-.923 0-1.6712-.7485-1.6712-1.671l.0001-11.5168c0-.9258.7481-1.6707 1.671-1.6707h11.5192c.9224 0 1.671.7451 1.671 1.6711l.0001 11.5163c0 .9223-.7487 1.6711-1.6711 1.6711zm0-24.1889h-11.5191c-.923 0-1.6712-.7481-1.6712-1.6706l.0001-11.5167c0-.9223.7481-1.6708 1.671-1.6708h11.5192c.9224 0 1.671.7486 1.671 1.6712l.0001 11.5162c0 .9223-.7487 1.6711-1.6711 1.6707z" fill="#ffe0b2"/><path d="m151.832 70.639h-8.177v8.1778h8.177z" fill="#cfd8dc"/><path d="m143.655 54.6283h8.177v-8.1742h-8.177z" fill="#cfd8dc"/><path d="m143.655 30.4399h8.177v-8.1742h-8.177z" fill="#cfd8dc"/><path d="m127.644 126.379-96.8896-.0002.0001 33.5152 96.8894-.0002zm-21.7153 9.807.0002 18.4266c0 .9227-.7487 1.6712-1.6716 1.6712-.9227 0-1.6711-.7484-1.6711-1.671v-18.4271c0-.9223.7482-1.6707 1.6711-1.6707s1.6714.7484 1.6714 1.671zm-25.0581 0 .0001 18.4266c0 .9227-.7483 1.6712-1.6712 1.6712s-1.671-.7484-1.671-1.671l.0001-18.4271c0-.9223.748-1.6707 1.6709-1.6707.923 0 1.6711.7484 1.6711 1.671zm-25.0576 18.4266c0 .9227-.7483 1.6712-1.6711 1.6712-.923 0-1.6712-.7484-1.6712-1.671l.0001-18.4271c0-.9223.7481-1.6707 1.671-1.6707s1.6711.7484 1.6711 1.671z" fill="#ffcc80"/><path d="m27.4121 159.894.0001-33.5152h-6.3667c-4.1595 0-7.5434 3.3841-7.5434 7.5443v18.4266c0 4.1601 3.3839 7.5443 7.5434 7.5443z" fill="#e57373"/><path d="m142.503 143.135c.0001 2.2557 1.8341 4.0907 4.0878 4.0907 2.2544-.0001 4.0889-1.8347 4.0889-4.0907.0002-2.2526-1.8346-4.087-4.0887-4.0872-2.2539 0-4.088 1.8348-4.088 4.0872z" fill="#cfd8dc"/></g></g></svg>