<svg height="512" viewBox="0 0 512 512" width="512" xmlns="http://www.w3.org/2000/svg"><g id="filled_outline" data-name="filled outline"><path d="m392 96a8 8 0 0 1 -8-8v-16a8 8 0 0 1 16 0v16a8 8 0 0 1 -8 8z" fill="#a8a8a8"/><path d="m88 152a8 8 0 0 1 -8-8v-24a8 8 0 0 1 16 0v24a8 8 0 0 1 -8 8z" fill="#cbcbcb"/><path d="m88 392a8 8 0 0 1 -8-8v-96a8 8 0 0 1 16 0v96a8 8 0 0 1 -8 8z" fill="#cbcbcb"/><path d="m216 248h4.839a22.32 22.32 0 0 0 17.857-8.929l4.1-5.471a44 44 0 0 1 35.204-17.6h46a44 44 0 0 1 44 44 44 44 0 0 1 -44 44h-148a16 16 0 0 0 -16 16v64h304v-200a32 32 0 0 0 -32-32h-216z" fill="#eaeae8"/><path d="m328 304v80h-168v-64a16 16 0 0 1 16-16z" fill="#cbcbcb"/><path d="m192 304h96v48h-96z" fill="#d32b39"/><path d="m200 288a8 8 0 0 1 -8-8v-32a8 8 0 0 1 16 0v32a8 8 0 0 1 -8 8z" fill="#026ca2"/><circle cx="416" cy="216" fill="#0296e5" r="16"/><circle cx="416" cy="272" fill="#0296e5" r="16"/><path d="m280 192h-16a8 8 0 0 1 0-16h16a8 8 0 0 1 0 16z" fill="#a8a8a8"/><path d="m320 192h-8a8 8 0 0 1 0-16h8a8 8 0 0 1 0 16z" fill="#a8a8a8"/><path d="m464 200h24v40h-24z" fill="#0296e5"/><path d="m464 272h24v40h-24z" fill="#0296e5"/><path d="m464 200h8v40h-8z" fill="#026ca2"/><path d="m464 272h8v40h-8z" fill="#026ca2"/><path d="m432 344h-72a8 8 0 0 1 0-16h72a8 8 0 0 1 0 16z" fill="#a8a8a8"/><path d="m368 88h48v64h-48z" fill="#ff6268"/><path d="m368 112h48v16h-48z" fill="#ee5e5b"/><path d="m168 384h48v32h-48z" fill="#eaeae8"/><path d="m400 384h48v32h-48z" fill="#eaeae8"/><path d="m168 384h48v16h-48z" fill="#a8a8a8"/><path d="m400 384h48v16h-48z" fill="#a8a8a8"/><path d="m144 200-2.646-15.877a54.089 54.089 0 0 0 -36.249-42.423 54.091 54.091 0 0 0 -34.21 0 54.089 54.089 0 0 0 -36.249 42.421l-2.646 15.879h16l1.083 1.653a38.407 38.407 0 0 1 -1.4 44.1 38.363 38.363 0 0 0 -7.674 22.964c-.009 8.941-.009 19.283-.009 19.283h96v-19.19a38.43 38.43 0 0 0 -7.686-23.058 38.43 38.43 0 0 1 -1.232-44.375l.918-1.377z" fill="#ea9d2d"/><path d="m63 384h50a7 7 0 0 1 7 7v25a0 0 0 0 1 0 0h-64a0 0 0 0 1 0 0v-25a7 7 0 0 1 7-7z" fill="#683b0d"/><circle cx="88" cy="104" fill="#683b0d" r="16"/><path d="m80 288h16v16h-16z" fill="#a8a8a8"/><path d="m56 400h64v16h-64z" fill="#55300b"/><path d="m212 152h4a0 0 0 0 1 0 0v96a0 0 0 0 1 0 0h-16a24 24 0 0 1 -24-24v-36a36 36 0 0 1 36-36z" fill="#0296e5"/><circle cx="392" cy="336" fill="#0296e5" r="16"/><path d="m192 304h16v8h-16z" fill="#ff6268"/><path d="m416 192a24 24 0 1 0 24 24 24.027 24.027 0 0 0 -24-24zm0 32a8 8 0 1 1 8-8 8.009 8.009 0 0 1 -8 8z"/><path d="m416 248a24 24 0 1 0 24 24 24.027 24.027 0 0 0 -24-24zm0 32a8 8 0 1 1 8-8 8.009 8.009 0 0 1 -8 8z"/><path d="m280 176h-16a8 8 0 0 0 0 16h16a8 8 0 0 0 0-16z"/><path d="m320 176h-8a8 8 0 0 0 0 16h8a8 8 0 0 0 0-16z"/><path d="m488 192h-16v-8a40.045 40.045 0 0 0 -40-40h-8v-56a8 8 0 0 0 -8-8h-16v-8a8 8 0 0 0 -16 0v8h-16a8 8 0 0 0 -8 8v56h-148a44.049 44.049 0 0 0 -44 44v36a32.056 32.056 0 0 0 24 30.987v25.013a8 8 0 0 0 16 0v-24h12.839a30.466 30.466 0 0 0 24.261-12.128l4.1-5.472a36.171 36.171 0 0 1 28.8-14.4h46a36 36 0 0 1 0 72h-148a24.027 24.027 0 0 0 -24 24v64a8 8 0 0 0 8 8v24a8 8 0 0 0 8 8h48a8 8 0 0 0 8-8v-24h168v24a8 8 0 0 0 8 8h48a8 8 0 0 0 8-8v-24h8a8 8 0 0 0 8-8v-64h16a8 8 0 0 0 8-8v-40a8 8 0 0 0 -8-8h-16v-16h16a8 8 0 0 0 8-8v-40a8 8 0 0 0 -8-8zm-280 48h-8a16.019 16.019 0 0 1 -16-16v-36a28.044 28.044 0 0 1 24-27.715zm-8 72h80v32h-80zm8 96h-32v-16h32zm112-32h-152v-56a8.009 8.009 0 0 1 8-8h8v40a8 8 0 0 0 8 8h96a8 8 0 0 0 8-8v-40h24zm56-280h32v16h-32zm0 32h32v16h-32zm64 280h-32v-16h32zm16-32h-120v-65.413a51.995 51.995 0 0 0 -12-102.587h-46a52.248 52.248 0 0 0 -41.6 20.8l-4.1 5.471a14.388 14.388 0 0 1 -8.3 5.364v-79.635h208a24.027 24.027 0 0 1 24 24zm24-96v24h-8v-24zm0-48h-8v-24h8z"/><path d="m432 328h-17.376a24 24 0 0 0 -45.248 0h-9.376a8 8 0 0 0 0 16h9.376a24 24 0 0 0 45.248 0h17.376a8 8 0 0 0 0-16zm-40 16a8 8 0 1 1 8-8 8.009 8.009 0 0 1 -8 8z"/><path d="m68.365 134.112a61.952 61.952 0 0 0 -41.61 48.7l-2.646 15.876a8 8 0 0 0 7.891 9.312h11.574a30.5 30.5 0 0 1 -2.288 32.952 46.651 46.651 0 0 0 -9.273 27.753c-.013 8.947-.013 19.295-.013 19.295a8 8 0 0 0 8 8h40v80h-17a15.017 15.017 0 0 0 -15 15v25a8 8 0 0 0 8 8h64a8 8 0 0 0 8-8v-25a15.017 15.017 0 0 0 -15-15h-17v-80h40a8 8 0 0 0 8-8v-19.19a46.722 46.722 0 0 0 -9.286-27.858 30.487 30.487 0 0 1 -2.304-32.952h11.59a8 8 0 0 0 7.891-9.315l-2.646-15.877a61.923 61.923 0 0 0 -53.245-51.342v-4.842a24 24 0 1 0 -16 0v4.842a61.7 61.7 0 0 0 -11.635 2.646zm43.635 257.888v16h-48v-16zm-24-296a8 8 0 1 1 -8 8 8.009 8.009 0 0 1 8-8zm14.575 53.291a45.989 45.989 0 0 1 30.888 36.147l1.093 6.562h-6.556a8 8 0 0 0 -6.656 3.562l-.918 1.377a46.5 46.5 0 0 0 1.488 53.613 30.625 30.625 0 0 1 6.086 18.258v11.19h-80c0-3.407 0-7.467.011-11.273a30.546 30.546 0 0 1 6.073-18.175 46.536 46.536 0 0 0 1.688-53.284l-1.083-1.653a8 8 0 0 0 -6.689-3.615h-6.556l1.093-6.561a46.091 46.091 0 0 1 60.038-36.148z"/></g></svg>