<svg id="Layer_1" enable-background="new 0 0 500 500" viewBox="0 0 500 500" xmlns="http://www.w3.org/2000/svg"><g clip-rule="evenodd" fill-rule="evenodd"><path d="m87.15 451.914h347.777c7.244 0 13.171-5.927 13.171-13.171v-26.156c0-7.244-5.926-13.17-13.171-13.17h-347.777c-7.244 0-13.171 5.926-13.171 13.17v26.156c0 7.244 5.927 13.171 13.171 13.171z" fill="#ffbf31"/><path d="m87.052 468.255h-27.984c-3.933 0-7.15-3.217-7.15-7.15v-70.88c0-3.933 3.217-7.15 7.15-7.15h27.984c3.933 0 7.15 3.217 7.15 7.15v70.88c0 3.933-3.218 7.15-7.15 7.15z" fill="#fa6e85"/><path d="m250.008 38.583h-22.878c-10.477 29.212-33.712 43.848-66.796 47.186v45.143c22.405 0 40.569 20.465 40.569 45.71 0 11.669-3.881 22.317-10.267 30.394-35.654 45.095-33.823 80.322 8.306 129.187h102.134c42.129-48.865 43.96-84.092 8.306-129.187-6.387-8.077-10.267-18.725-10.267-30.394 0-25.245 18.163-45.71 40.569-45.71v-45.142c-33.084-3.338-56.319-17.974-66.796-47.186h-22.88z" fill="#f0b16e"/><path d="m87.528 65.654v-33.911c0-3.765 3.053-6.822 6.817-6.822h33.913c3.764 0 6.822 3.056 6.822 6.822 0 3.763-3.058 6.819-6.822 6.819h-27.091v27.093c0 3.763-3.058 6.819-6.822 6.819s-6.817-3.056-6.817-6.82zm0 277.395v-33.912c0-3.763 3.053-6.819 6.817-6.819s6.822 3.056 6.822 6.819v27.093h27.091c3.764 0 6.822 3.056 6.822 6.819 0 3.766-3.058 6.822-6.822 6.822h-33.913c-3.764 0-6.817-3.056-6.817-6.822zm277.393 0c0-3.763 3.058-6.819 6.822-6.819h27.091v-27.093c0-3.763 3.052-6.819 6.822-6.819 3.764 0 6.822 3.056 6.822 6.819v33.912c0 3.766-3.058 6.822-6.822 6.822h-33.913c-3.764 0-6.822-3.056-6.822-6.822zm0-311.306c0-3.765 3.058-6.822 6.822-6.822h33.913c3.764 0 6.822 3.056 6.822 6.822v33.912c0 3.763-3.058 6.819-6.822 6.819-3.769 0-6.822-3.056-6.822-6.819v-27.093h-27.091c-3.764 0-6.822-3.056-6.822-6.819zm-121.74 176.079v-5.422c0-3.774 3.053-6.819 6.816-6.819 3.769 0 6.822 3.046 6.822 6.819v5.422c0 3.763-3.053 6.819-6.822 6.819-3.764 0-6.816-3.056-6.816-6.819zm0 33.083v-5.419c0-3.765 3.053-6.821 6.816-6.821 3.769 0 6.822 3.056 6.822 6.821v5.419c0 3.774-3.053 6.821-6.822 6.821-3.764 0-6.816-3.047-6.816-6.821zm-10.105-35.795c0 3.765-3.058 6.821-6.822 6.821h-5.416c-3.769 0-6.822-3.056-6.822-6.821 0-3.774 3.053-6.819 6.822-6.819h5.416c3.764 0 6.822 3.046 6.822 6.819zm16.921 108.803c-3.764 0-6.816-3.056-6.816-6.821v-5.419c0-3.765 3.053-6.822 6.816-6.822 3.769 0 6.822 3.056 6.822 6.822v5.419c0 3.765-3.053 6.821-6.822 6.821zm-6.816-39.915v-5.419c0-3.765 3.053-6.821 6.816-6.821 3.769 0 6.822 3.056 6.822 6.821v5.419c0 3.766-3.053 6.822-6.822 6.822-3.764 0-6.816-3.056-6.816-6.822zm23.743-68.888c0-3.774 3.058-6.819 6.822-6.819h5.421c3.764 0 6.822 3.046 6.822 6.819 0 3.765-3.058 6.821-6.822 6.821h-5.421c-3.764.001-6.822-3.055-6.822-6.821zm-23.743-30.381v-5.421c0-3.766 3.053-6.819 6.816-6.819 3.769 0 6.822 3.054 6.822 6.819v5.421c0 3.763-3.053 6.819-6.822 6.819-3.764 0-6.816-3.056-6.816-6.819zm0-99.281v-5.419c0-3.765 3.053-6.821 6.816-6.821 3.769 0 6.822 3.056 6.822 6.821v5.419c0 3.774-3.053 6.819-6.822 6.819-3.764 0-6.816-3.045-6.816-6.819zm0 33.094v-5.422c0-3.763 3.053-6.819 6.816-6.819 3.769 0 6.822 3.056 6.822 6.819v5.422c0 3.765-3.053 6.819-6.822 6.819-3.764 0-6.816-3.054-6.816-6.819zm0 33.093v-5.422c0-3.763 3.053-6.819 6.816-6.819 3.769 0 6.822 3.056 6.822 6.819v5.422c0 3.763-3.053 6.819-6.822 6.819-3.764.001-6.816-3.055-6.816-6.819zm198.083 297.113c0 3.5-2.845 6.347-6.346 6.347h-30.565v-8.531c0-3.766-3.053-6.819-6.822-6.819-3.764 0-6.822 3.054-6.822 6.819v8.531h-36.911v-21.372c0-3.763-3.053-6.819-6.822-6.819-3.775 0-6.816 3.056-6.816 6.819v21.372h-36.922v-8.531c0-3.766-3.047-6.819-6.822-6.819-3.764 0-6.822 3.054-6.822 6.819v8.531h-36.911v-21.372c0-3.763-3.058-6.819-6.822-6.819s-6.822 3.056-6.822 6.819v21.372h-36.911v-8.531c0-3.766-3.058-6.819-6.822-6.819s-6.816 3.054-6.816 6.819v8.531h-36.916v-21.372c0-3.763-3.053-6.819-6.822-6.819s-6.817 3.056-6.817 6.819v21.372h-36.922v-38.859h333.904c3.501 0 6.346 2.855 6.346 6.358v26.154zm-353.894 22.361c0 .165-.164.327-.328.327h-27.983c-.164 0-.323-.162-.323-.327v-70.88c0-.173.159-.335.323-.335h27.983c.164 0 .328.162.328.335zm108.61-249.859c-33.245 42.05-31.763 73.226 6.105 118.131h95.831c37.868-44.905 39.35-76.081 6.105-118.131-7.566-9.576-11.735-21.872-11.735-34.621 0-26.4 17.654-48.318 40.571-51.991v-32.84c-31.938-4.718-53.646-20.297-64.642-46.388h-36.43c-10.996 26.091-32.704 41.669-64.642 46.388v32.839c22.917 3.673 40.571 25.591 40.571 51.991 0 12.75-4.168 25.046-11.734 34.622zm238.938 181.345h-178.099v-49.572h44.242c1.991 0 3.879-.865 5.17-2.365 44.105-51.153 46.49-89.811 8.491-137.875-5.673-7.165-8.791-16.461-8.791-26.154 0-21.445 15.132-38.896 33.749-38.896 3.764 0 6.817-3.056 6.817-6.822v-45.141c0-3.503-2.653-6.43-6.138-6.785-31.938-3.218-51.906-17.188-61.053-42.706-.974-2.71-3.551-4.511-6.423-4.511h-45.762c-2.872 0-5.449 1.801-6.417 4.511-9.153 25.518-29.121 39.487-61.059 42.706-3.485.355-6.138 3.282-6.138 6.785v45.141c0 3.766 3.053 6.822 6.817 6.822 18.617 0 33.749 17.45 33.749 38.896 0 9.693-3.118 18.99-8.792 26.154-37.994 48.063-35.614 86.722 8.491 137.875 1.296 1.5 3.173 2.365 5.164 2.365h44.247v49.572h-142.169v-2.365c0-7.71-6.269-13.976-13.972-13.976h-27.983c-7.703 0-13.967 6.266-13.967 13.976v70.88c0 7.702 6.264 13.97 13.967 13.97h27.983c7.703 0 13.972-6.268 13.972-13.97v-2.374h333.904c11.023 0 19.99-8.967 19.99-19.987v-26.155c0-11.032-8.967-19.999-19.99-19.999z" fill="#1e2f3f"/></g></svg>